<svg xmlns="http://www.w3.org/2000/svg" xmlns:xlink="http://www.w3.org/1999/xlink" width="500" zoomAndPan="magnify" viewBox="0 0 375 374.999991" height="500" preserveAspectRatio="xMidYMid meet" version="1.0"><defs><g/><clipPath id="1d8afbe0f1"><rect x="0" width="191" y="0" height="83"/></clipPath><clipPath id="d019d6c44c"><rect x="0" width="255" y="0" height="141"/></clipPath></defs><rect x="-37.5" width="450" fill="#ffffff" y="-37.499999" height="449.999989" fill-opacity="1"/><rect x="-37.5" width="450" fill="#ffffff" y="-37.499999" height="449.999989" fill-opacity="1"/><g transform="matrix(1, 0, 0, 1, 96, 191)"><g clip-path="url(#1d8afbe0f1)"><g fill="#604605" fill-opacity="1"><g transform="translate(1.172342, 61.395908)"><g><path d="M 4.453125 0 L 4.453125 -57.734375 L 22.546875 -57.734375 L 39.40625 -15.484375 L 39.5625 -15.484375 L 56.515625 -57.734375 L 74.421875 -57.734375 L 74.421875 0 L 61.703125 0 L 61.703125 -40.53125 L 61.53125 -40.53125 L 45.078125 0 L 33.8125 0 L 17.265625 -40.453125 L 17.109375 -40.453125 L 17.109375 0 Z M 4.453125 0 "/></g></g></g><g fill="#604605" fill-opacity="1"><g transform="translate(77.215469, 61.395908)"><g><path d="M 26.671875 1.625 C 21.804688 1.625 17.507812 0.664062 13.78125 -1.25 C 10.050781 -3.175781 7.128906 -5.835938 5.015625 -9.234375 C 2.910156 -12.640625 1.859375 -16.5625 1.859375 -21 C 1.859375 -25.375 2.789062 -29.222656 4.65625 -32.546875 C 6.519531 -35.878906 9.140625 -38.476562 12.515625 -40.34375 C 15.898438 -42.207031 19.8125 -43.140625 24.25 -43.140625 C 28.570312 -43.140625 32.335938 -42.242188 35.546875 -40.453125 C 38.765625 -38.671875 41.28125 -36.195312 43.09375 -33.03125 C 44.90625 -29.875 45.8125 -26.210938 45.8125 -22.046875 C 45.8125 -21.242188 45.753906 -20.421875 45.640625 -19.578125 C 45.535156 -18.742188 45.398438 -18 45.234375 -17.34375 L 14.59375 -17.34375 C 14.96875 -14.375 16.300781 -11.984375 18.59375 -10.171875 C 20.894531 -8.359375 23.75 -7.453125 27.15625 -7.453125 C 29.75 -7.453125 32.179688 -7.976562 34.453125 -9.03125 C 36.722656 -10.09375 38.453125 -11.460938 39.640625 -13.140625 L 46.703125 -7.703125 C 45.023438 -4.941406 42.390625 -2.695312 38.796875 -0.96875 C 35.203125 0.757812 31.160156 1.625 26.671875 1.625 Z M 14.515625 -24.484375 L 33.234375 -24.484375 C 33.023438 -27.566406 32.109375 -29.972656 30.484375 -31.703125 C 28.859375 -33.429688 26.78125 -34.296875 24.25 -34.296875 C 21.644531 -34.296875 19.460938 -33.390625 17.703125 -31.578125 C 15.953125 -29.765625 14.890625 -27.398438 14.515625 -24.484375 Z M 14.515625 -24.484375 "/></g></g></g><g fill="#604605" fill-opacity="1"><g transform="translate(122.614245, 61.395908)"><g><path d="M 16.046875 1.21875 C 11.722656 1.21875 8.171875 0.140625 5.390625 -2.015625 C 2.609375 -4.179688 1.21875 -7.050781 1.21875 -10.625 C 1.21875 -14.1875 2.753906 -17.179688 5.828125 -19.609375 C 8.910156 -22.046875 13.5625 -23.59375 19.78125 -24.25 L 27.8125 -25.21875 C 28.78125 -25.320312 29.5625 -25.628906 30.15625 -26.140625 C 30.75 -26.660156 31.046875 -27.351562 31.046875 -28.21875 C 31.046875 -30 30.34375 -31.429688 28.9375 -32.515625 C 27.539062 -33.597656 25.734375 -34.140625 23.515625 -34.140625 C 21.023438 -34.140625 18.96875 -33.367188 17.34375 -31.828125 C 15.726562 -30.285156 14.8125 -28.488281 14.59375 -26.4375 L 2.515625 -28.296875 C 2.785156 -31.160156 3.796875 -33.710938 5.546875 -35.953125 C 7.304688 -38.203125 9.695312 -39.960938 12.71875 -41.234375 C 15.75 -42.503906 19.238281 -43.140625 23.1875 -43.140625 C 29.289062 -43.140625 34.15625 -41.640625 37.78125 -38.640625 C 41.40625 -35.640625 43.21875 -31.539062 43.21875 -26.34375 L 43.21875 -10.296875 C 43.21875 -8.296875 43.921875 -7.296875 45.328125 -7.296875 C 46.515625 -7.296875 47.59375 -7.914062 48.5625 -9.15625 L 51.484375 -2.59375 C 50.242188 -1.351562 48.632812 -0.410156 46.65625 0.234375 C 44.6875 0.890625 42.753906 1.21875 40.859375 1.21875 C 38.378906 1.21875 36.242188 0.539062 34.453125 -0.8125 C 32.671875 -2.164062 31.644531 -3.785156 31.375 -5.671875 L 31.21875 -7.140625 L 31.140625 -7.140625 C 29.785156 -4.648438 27.8125 -2.632812 25.21875 -1.09375 C 22.625 0.445312 19.566406 1.21875 16.046875 1.21875 Z M 20.75 -7.296875 C 23.675781 -7.296875 26.082031 -8.203125 27.96875 -10.015625 C 29.863281 -11.828125 30.8125 -14.140625 30.8125 -16.953125 L 30.8125 -18.640625 L 22.859375 -17.75 C 19.398438 -17.375 16.992188 -16.671875 15.640625 -15.640625 C 14.296875 -14.617188 13.625 -13.429688 13.625 -12.078125 C 13.625 -10.671875 14.296875 -9.519531 15.640625 -8.625 C 16.992188 -7.738281 18.695312 -7.296875 20.75 -7.296875 Z M 20.75 -7.296875 "/></g></g></g><g fill="#604605" fill-opacity="1"><g transform="translate(171.255803, 61.395908)"><g><path d="M 3.25 0 L 3.25 -60.15625 L 15.640625 -60.15625 L 15.640625 0 Z M 3.25 0 "/></g></g></g></g></g><g transform="matrix(1, 0, 0, 1, 66, 74)"><g clip-path="url(#d019d6c44c)"><g fill="#604605" fill-opacity="1"><g transform="translate(3.705853, 94.907903)"><g><path d="M 25.265625 11.671875 C 25.265625 12.484375 24.992188 12.90625 24.453125 12.9375 C 23.921875 12.96875 23.300781 12.765625 22.59375 12.328125 C 21.894531 11.890625 21.273438 11.351562 20.734375 10.71875 C 20.203125 10.082031 19.9375 9.492188 19.9375 8.953125 C 20.0625 0.367188 21.347656 -7.976562 23.796875 -16.09375 C 26.253906 -24.21875 29.796875 -31.867188 34.421875 -39.046875 C 34.691406 -39.585938 35.144531 -39.753906 35.78125 -39.546875 C 36.414062 -39.347656 37.050781 -38.945312 37.6875 -38.34375 C 38.332031 -37.738281 38.804688 -37.066406 39.109375 -36.328125 C 39.410156 -35.597656 39.390625 -34.960938 39.046875 -34.421875 C 34.691406 -27.578125 31.335938 -20.226562 28.984375 -12.375 C 26.640625 -4.53125 25.398438 3.484375 25.265625 11.671875 Z M 75.390625 -53.25 C 77.671875 -50.96875 78.894531 -48.632812 79.0625 -46.25 C 79.226562 -43.863281 78.738281 -41.492188 77.59375 -39.140625 C 76.457031 -36.796875 74.953125 -34.601562 73.078125 -32.5625 C 71.203125 -30.519531 69.359375 -28.722656 67.546875 -27.171875 C 61.703125 -22.210938 55.125 -18.421875 47.8125 -15.796875 C 48.945312 -15.265625 49.953125 -14.660156 50.828125 -13.984375 C 53.578125 -11.910156 55.320312 -9.28125 56.0625 -6.09375 C 56.800781 -2.90625 56.332031 0.195312 54.65625 3.21875 C 53.445312 5.300781 51.867188 7.179688 49.921875 8.859375 C 47.972656 10.535156 45.875 12.023438 43.625 13.328125 C 41.382812 14.640625 39.191406 15.800781 37.046875 16.8125 C 33.691406 18.414062 30.21875 19.4375 26.625 19.875 C 23.03125 20.3125 19.523438 19.59375 16.109375 17.71875 C 15.503906 17.445312 14.878906 16.957031 14.234375 16.25 C 13.597656 15.550781 13.316406 14.832031 13.390625 14.09375 C 13.453125 13.351562 13.769531 12.929688 14.34375 12.828125 C 14.914062 12.734375 15.46875 12.851562 16 13.1875 C 18.6875 14.59375 21.503906 15.007812 24.453125 14.4375 C 27.410156 13.875 30.195312 12.988281 32.8125 11.78125 C 35.289062 10.632812 37.753906 9.304688 40.203125 7.796875 C 42.660156 6.285156 44.863281 4.554688 46.8125 2.609375 C 47.8125 1.671875 48.78125 0.363281 49.71875 -1.3125 C 50.664062 -2.988281 51.1875 -4.695312 51.28125 -6.4375 C 51.382812 -8.1875 50.628906 -9.597656 49.015625 -10.671875 C 47.273438 -11.804688 45.210938 -12.472656 42.828125 -12.671875 C 40.441406 -12.878906 38.242188 -12.953125 36.234375 -12.890625 C 35.828125 -12.890625 35.304688 -13.140625 34.671875 -13.640625 C 34.035156 -14.140625 33.460938 -14.722656 32.953125 -15.390625 C 32.453125 -16.066406 32.171875 -16.671875 32.109375 -17.203125 C 32.046875 -17.742188 32.347656 -18.082031 33.015625 -18.21875 C 38.515625 -19.09375 43.8125 -20.671875 48.90625 -22.953125 C 54.007812 -25.234375 58.675781 -28.1875 62.90625 -31.8125 C 63.78125 -32.550781 64.921875 -33.640625 66.328125 -35.078125 C 67.742188 -36.523438 69.101562 -38.117188 70.40625 -39.859375 C 71.71875 -41.609375 72.707031 -43.320312 73.375 -45 C 74.050781 -46.675781 74.101562 -48.164062 73.53125 -49.46875 C 72.957031 -50.78125 71.5 -51.671875 69.15625 -52.140625 C 66.332031 -52.742188 63.425781 -52.859375 60.4375 -52.484375 C 57.457031 -52.117188 54.488281 -51.5 51.53125 -50.625 C 48.582031 -49.757812 45.832031 -48.890625 43.28125 -48.015625 C 39.125 -46.535156 35.046875 -44.835938 31.046875 -42.921875 C 27.054688 -41.015625 23.25 -38.820312 19.625 -36.34375 C 18.21875 -35.332031 16.675781 -34.171875 15 -32.859375 C 13.320312 -31.554688 11.828125 -30.082031 10.515625 -28.4375 C 9.210938 -26.789062 8.457031 -25.03125 8.25 -23.15625 C 8.1875 -22.34375 7.867188 -21.898438 7.296875 -21.828125 C 6.722656 -21.765625 6.082031 -21.953125 5.375 -22.390625 C 4.675781 -22.828125 4.070312 -23.363281 3.5625 -24 C 3.0625 -24.644531 2.847656 -25.269531 2.921875 -25.875 C 3.253906 -28.625 4.304688 -31.101562 6.078125 -33.3125 C 7.859375 -35.53125 9.957031 -37.492188 12.375 -39.203125 C 14.789062 -40.910156 17.070312 -42.4375 19.21875 -43.78125 C 23.78125 -46.53125 28.5625 -48.925781 33.5625 -50.96875 C 38.5625 -53.019531 43.644531 -54.648438 48.8125 -55.859375 C 51.632812 -56.597656 54.65625 -57.1875 57.875 -57.625 C 61.09375 -58.0625 64.242188 -58.007812 67.328125 -57.46875 C 70.421875 -56.9375 73.109375 -55.53125 75.390625 -53.25 Z M 75.390625 -53.25 "/></g></g></g><g fill="#604605" fill-opacity="1"><g transform="translate(71.045879, 94.907903)"><g><path d="M 18.625 -13.1875 C 18.957031 -12.644531 19.070312 -12.085938 18.96875 -11.515625 C 18.875 -10.953125 18.457031 -10.632812 17.71875 -10.5625 C 17.175781 -10.5625 16.671875 -10.710938 16.203125 -11.015625 C 15.734375 -11.316406 15.296875 -11.703125 14.890625 -12.171875 C 14.222656 -12.171875 13.316406 -11.769531 12.171875 -10.96875 C 11.035156 -10.164062 10.265625 -9.628906 9.859375 -9.359375 C 9.117188 -8.828125 8.414062 -8.238281 7.75 -7.59375 C 7.082031 -6.957031 6.410156 -6.304688 5.734375 -5.640625 C 2.847656 -2.546875 0.566406 0.804688 -1.109375 4.421875 C -1.515625 5.296875 -2.1875 5.53125 -3.125 5.125 C -4.0625 4.726562 -4.878906 4.0625 -5.578125 3.125 C -6.285156 2.1875 -6.503906 1.378906 -6.234375 0.703125 C -5.160156 -2.316406 -4.035156 -5.285156 -2.859375 -8.203125 C -1.691406 -11.117188 -0.570312 -14.085938 0.5 -17.109375 C 0.769531 -17.785156 1.273438 -18.035156 2.015625 -17.859375 C 2.753906 -17.691406 3.488281 -17.273438 4.21875 -16.609375 C 4.957031 -15.941406 5.460938 -15.238281 5.734375 -14.5 C 8.015625 -16.238281 10.3125 -17.191406 12.625 -17.359375 C 14.945312 -17.523438 16.945312 -16.132812 18.625 -13.1875 Z M 18.625 -13.1875 "/></g></g></g><g fill="#604605" fill-opacity="1"><g transform="translate(95.505705, 94.907903)"><g><path d="M 19.03125 -12.484375 C 19.632812 -13.015625 20.320312 -13.128906 21.09375 -12.828125 C 21.863281 -12.523438 22.414062 -12.019531 22.75 -11.3125 C 23.082031 -10.613281 22.945312 -10 22.34375 -9.46875 C 20.738281 -8.125 19.078125 -6.796875 17.359375 -5.484375 C 15.648438 -4.171875 13.921875 -2.914062 12.171875 -1.71875 C 10.703125 -0.769531 9.160156 0.203125 7.546875 1.203125 C 5.941406 2.210938 4.296875 2.921875 2.609375 3.328125 C 1.273438 3.523438 0.0195312 3.320312 -1.15625 2.71875 C -2.332031 2.113281 -3.289062 1.253906 -4.03125 0.140625 C -4.769531 -0.960938 -5.140625 -2.179688 -5.140625 -3.515625 C -5.203125 -5.734375 -4.59375 -8.03125 -3.3125 -10.40625 C -2.039062 -12.789062 -0.867188 -14.925781 0.203125 -16.8125 C 0.609375 -17.414062 1.144531 -17.648438 1.8125 -17.515625 C 2.476562 -17.378906 3.144531 -17.039062 3.8125 -16.5 C 4.488281 -15.96875 4.992188 -15.363281 5.328125 -14.6875 C 5.671875 -14.019531 5.707031 -13.453125 5.4375 -12.984375 C 4.5625 -11.503906 3.753906 -10.007812 3.015625 -8.5 C 2.273438 -6.988281 1.601562 -5.460938 1 -3.921875 C 0.875 -3.523438 0.707031 -3.085938 0.5 -2.609375 C 1.90625 -2.816406 3.75 -3.457031 6.03125 -4.53125 C 8.320312 -5.601562 10.65625 -6.859375 13.03125 -8.296875 C 15.414062 -9.742188 17.414062 -11.140625 19.03125 -12.484375 Z M 9.96875 -22.953125 C 9.5625 -22.140625 8.867188 -21.9375 7.890625 -22.34375 C 6.921875 -22.75 6.066406 -23.40625 5.328125 -24.3125 C 4.597656 -25.21875 4.398438 -26.039062 4.734375 -26.78125 C 5.335938 -27.988281 5.769531 -28.875 6.03125 -29.4375 C 6.300781 -30.007812 6.4375 -30.296875 6.4375 -30.296875 C 6.84375 -30.898438 7.378906 -31.148438 8.046875 -31.046875 C 8.722656 -30.953125 9.378906 -30.632812 10.015625 -30.09375 C 10.648438 -29.5625 11.148438 -28.957031 11.515625 -28.28125 C 11.890625 -27.613281 11.941406 -27.007812 11.671875 -26.46875 C 11.671875 -26.46875 11.570312 -26.25 11.375 -25.8125 C 11.175781 -25.382812 10.707031 -24.429688 9.96875 -22.953125 Z M 9.96875 -22.953125 "/></g></g></g><g fill="#604605" fill-opacity="1"><g transform="translate(115.234632, 94.907903)"><g><path d="M 34.53125 -13.796875 C 35.257812 -14.128906 35.976562 -13.972656 36.6875 -13.328125 C 37.394531 -12.691406 37.847656 -11.9375 38.046875 -11.0625 C 38.242188 -10.195312 37.910156 -9.5625 37.046875 -9.15625 C 32.953125 -7.34375 29.023438 -5.210938 25.265625 -2.765625 C 21.503906 -0.316406 18.015625 2.414062 14.796875 5.4375 C 10.234375 18.457031 5.03125 31.109375 -0.8125 43.390625 C -1.207031 44.253906 -1.789062 44.519531 -2.5625 44.1875 C -3.332031 43.851562 -4.050781 43.300781 -4.71875 42.53125 C -5.394531 41.757812 -5.800781 41.171875 -5.9375 40.765625 C -7.34375 37.078125 -7.742188 33.351562 -7.140625 29.59375 C -6.535156 25.832031 -5.3125 22.191406 -3.46875 18.671875 C -1.625 15.148438 0.398438 11.945312 2.609375 9.0625 C 4.765625 6.3125 7.148438 3.660156 9.765625 1.109375 C 10.503906 -0.898438 11.242188 -3.015625 11.984375 -5.234375 C 9.492188 -3.554688 7.109375 -1.726562 4.828125 0.25 C 2.546875 2.226562 -0.0351562 3.789062 -2.921875 4.9375 C -3.585938 5.195312 -4.289062 5.078125 -5.03125 4.578125 C -5.769531 4.078125 -6.375 3.421875 -6.84375 2.609375 C -7.3125 1.804688 -7.476562 1.070312 -7.34375 0.40625 C -6.675781 -2.613281 -5.535156 -5.550781 -3.921875 -8.40625 C -2.316406 -11.257812 -0.269531 -13.625 2.21875 -15.5 C 4.289062 -17.039062 6.5 -17.625 8.84375 -17.25 C 11.195312 -16.882812 13.082031 -15.664062 14.5 -13.59375 C 14.757812 -13.65625 14.992188 -13.722656 15.203125 -13.796875 C 15.867188 -13.992188 16.585938 -13.859375 17.359375 -13.390625 C 18.128906 -12.921875 18.765625 -12.300781 19.265625 -11.53125 C 19.773438 -10.757812 19.929688 -10.003906 19.734375 -9.265625 C 19.523438 -8.796875 19.335938 -8.289062 19.171875 -7.75 C 19.003906 -7.207031 18.851562 -6.671875 18.71875 -6.140625 C 21.601562 -7.753906 24.320312 -9.144531 26.875 -10.3125 C 29.425781 -11.488281 31.976562 -12.648438 34.53125 -13.796875 Z M 2.3125 -5.9375 C 3.65625 -7.082031 5.015625 -8.191406 6.390625 -9.265625 C 7.765625 -10.335938 9.222656 -11.273438 10.765625 -12.078125 C 10.628906 -12.078125 10.460938 -12.109375 10.265625 -12.171875 C 10.066406 -12.171875 9.863281 -12.15625 9.65625 -12.125 C 9.457031 -12.09375 9.257812 -12.046875 9.0625 -11.984375 C 8.519531 -11.847656 8 -11.609375 7.5 -11.265625 C 7 -10.929688 6.546875 -10.597656 6.140625 -10.265625 C 5.472656 -9.660156 4.835938 -9.019531 4.234375 -8.34375 C 3.628906 -7.675781 3.054688 -7.007812 2.515625 -6.34375 C 2.453125 -6.269531 2.398438 -6.203125 2.359375 -6.140625 C 2.328125 -6.078125 2.3125 -6.007812 2.3125 -5.9375 Z M -0.609375 27.578125 C -0.265625 26.773438 0.0859375 25.96875 0.453125 25.15625 C 0.816406 24.351562 1.171875 23.550781 1.515625 22.75 C 0.640625 24.425781 -0.0664062 26.035156 -0.609375 27.578125 Z M -0.609375 27.578125 "/></g></g></g><g fill="#604605" fill-opacity="1"><g transform="translate(150.162886, 94.907903)"><g><path d="M 46.90625 -13.078125 C 47.570312 -13.421875 48.238281 -13.351562 48.90625 -12.875 C 49.582031 -12.40625 50.019531 -11.800781 50.21875 -11.0625 C 50.425781 -10.332031 50.09375 -9.734375 49.21875 -9.265625 C 46.195312 -7.515625 43.109375 -5.664062 39.953125 -3.71875 C 36.804688 -1.78125 33.554688 -0.238281 30.203125 0.90625 C 28.316406 1.507812 26.46875 1.390625 24.65625 0.546875 C 22.84375 -0.285156 21.835938 -1.8125 21.640625 -4.03125 C 21.578125 -5.03125 21.675781 -6.050781 21.9375 -7.09375 C 22.207031 -8.132812 22.507812 -9.125 22.84375 -10.0625 C 23.113281 -10.738281 23.382812 -11.410156 23.65625 -12.078125 C 23.925781 -12.742188 24.160156 -13.414062 24.359375 -14.09375 C 16.171875 -9.53125 8.921875 -3.757812 2.609375 3.21875 C 2.273438 3.625 1.789062 3.707031 1.15625 3.46875 C 0.519531 3.238281 0.0351562 2.988281 -0.296875 2.71875 C -2.515625 1.039062 -3.625 -0.851562 -3.625 -2.96875 C -3.625 -5.082031 -3.222656 -7.347656 -2.421875 -9.765625 C -0.335938 -15.535156 1.941406 -21.238281 4.421875 -26.875 C 6.972656 -32.582031 9.773438 -38.171875 12.828125 -43.640625 C 15.878906 -49.109375 19.117188 -54.425781 22.546875 -59.59375 C 22.878906 -60.125 23.378906 -60.289062 24.046875 -60.09375 C 24.722656 -59.894531 25.363281 -59.492188 25.96875 -58.890625 C 26.570312 -58.285156 27.023438 -57.613281 27.328125 -56.875 C 27.628906 -56.132812 27.613281 -55.492188 27.28125 -54.953125 C 21.375 -46.097656 16.171875 -36.941406 11.671875 -27.484375 C 9.460938 -22.785156 7.382812 -17.984375 5.4375 -13.078125 C 4.632812 -11.003906 3.828125 -8.828125 3.015625 -6.546875 C 5.566406 -8.890625 8.21875 -11.066406 10.96875 -13.078125 C 13.71875 -15.097656 16.570312 -16.976562 19.53125 -18.71875 C 21 -19.59375 22.421875 -20.195312 23.796875 -20.53125 C 25.179688 -20.863281 26.578125 -20.394531 27.984375 -19.125 C 29.117188 -18.050781 29.769531 -16.828125 29.9375 -15.453125 C 30.113281 -14.078125 30.03125 -12.6875 29.6875 -11.28125 C 29.488281 -10.132812 29.171875 -9.023438 28.734375 -7.953125 C 28.296875 -6.878906 27.910156 -5.804688 27.578125 -4.734375 C 30.796875 -5.734375 34.097656 -6.953125 37.484375 -8.390625 C 40.878906 -9.835938 44.019531 -11.398438 46.90625 -13.078125 Z M 46.90625 -13.078125 "/></g></g></g><g fill="#604605" fill-opacity="1"><g transform="translate(197.572686, 94.907903)"><g><path d="M 50.03125 -38.65625 C 50.632812 -38.320312 51.253906 -37.800781 51.890625 -37.09375 C 52.523438 -36.382812 52.8125 -35.660156 52.75 -34.921875 C 52.675781 -34.191406 52.367188 -33.773438 51.828125 -33.671875 C 51.296875 -33.566406 50.726562 -33.679688 50.125 -34.015625 C 47.507812 -35.359375 44.757812 -36.265625 41.875 -36.734375 C 38.988281 -37.203125 36.101562 -37.539062 33.21875 -37.75 C 27.507812 -38.082031 21.769531 -38.21875 16 -38.15625 C 15.9375 -38.15625 15.867188 -38.15625 15.796875 -38.15625 C 15.734375 -38.15625 15.703125 -38.15625 15.703125 -38.15625 C 12.753906 -31.644531 10.050781 -25.03125 7.59375 -18.3125 C 5.144531 -11.601562 3.195312 -4.796875 1.75 2.109375 C 0.3125 9.023438 -0.335938 16.070312 -0.203125 23.25 C -0.203125 24.050781 -0.46875 24.484375 -1 24.546875 C -1.539062 24.617188 -2.160156 24.4375 -2.859375 24 C -3.566406 23.570312 -4.1875 23.035156 -4.71875 22.390625 C -5.257812 21.753906 -5.53125 21.132812 -5.53125 20.53125 C -5.738281 10.332031 -4.429688 0.367188 -1.609375 -9.359375 C 1.203125 -19.085938 4.625 -28.582031 8.65625 -37.84375 C -1.007812 -37.3125 -10.570312 -36.140625 -20.03125 -34.328125 C -20.632812 -34.191406 -21.285156 -34.359375 -21.984375 -34.828125 C -22.691406 -35.296875 -23.296875 -35.863281 -23.796875 -36.53125 C -24.304688 -37.207031 -24.59375 -37.847656 -24.65625 -38.453125 C -24.726562 -39.054688 -24.460938 -39.425781 -23.859375 -39.5625 C -18.085938 -40.632812 -12.28125 -41.503906 -6.4375 -42.171875 C -0.601562 -42.847656 5.265625 -43.253906 11.171875 -43.390625 C 12.242188 -45.734375 13.316406 -48.0625 14.390625 -50.375 C 15.460938 -52.6875 16.570312 -54.984375 17.71875 -57.265625 C 17.988281 -57.867188 18.457031 -58.117188 19.125 -58.015625 C 19.789062 -57.921875 20.457031 -57.601562 21.125 -57.0625 C 21.800781 -56.53125 22.320312 -55.925781 22.6875 -55.25 C 23.0625 -54.582031 23.113281 -53.984375 22.84375 -53.453125 C 22.039062 -51.773438 21.253906 -50.113281 20.484375 -48.46875 C 19.710938 -46.820312 18.925781 -45.191406 18.125 -43.578125 C 21.675781 -43.578125 25.3125 -43.507812 29.03125 -43.375 C 32.757812 -43.25 36.414062 -42.832031 40 -42.125 C 43.59375 -41.414062 46.9375 -40.257812 50.03125 -38.65625 Z M 50.03125 -38.65625 "/></g></g></g></g></g></svg>