<svg xmlns="http://www.w3.org/2000/svg" width="500" height="500" viewBox="0 0 375 375"><defs><clipPath id="a"><path d="M0 0h191v83H0z"/></clipPath><clipPath id="b"><path d="M0 0h255v141H0z"/></clipPath></defs><g fill="#604605" clip-path="url(#a)" transform="translate(96 191)"><path d="M5.625 61.396V3.662H23.72l16.86 42.25h.156l16.953-42.25h17.906v57.734h-12.72V20.865h-.171L46.25 61.395H34.985L18.438 20.944h-.156v40.453Zm98.262 1.624q-7.3-.001-12.89-2.874-5.596-2.888-8.766-7.984-3.157-5.11-3.156-11.766-.002-6.562 2.797-11.547 2.795-4.997 7.86-7.797c3.382-1.863 7.296-2.797 11.733-2.797 4.32 0 8.086.899 11.297 2.688 3.22 1.781 5.735 4.258 7.547 7.422q2.72 4.736 2.719 10.984c0 .805-.059 1.625-.172 2.469a19 19 0 0 1-.406 2.234H91.81q.56 4.454 4 7.172 3.45 2.72 8.562 2.719 3.888.002 7.297-1.578c2.27-1.063 4-2.43 5.187-4.11l7.063 5.438q-2.518 4.144-7.907 6.734-5.39 2.592-12.125 2.594M91.731 36.913h18.719q-.314-4.623-2.75-7.22-2.437-2.591-6.235-2.593-3.909 0-6.546 2.719c-1.75 1.812-2.813 4.18-3.188 7.094m0 0"/><path d="M138.661 62.615q-6.485 0-10.656-3.235-4.172-3.247-4.172-8.61-.001-5.341 4.61-8.983 4.623-3.657 13.952-4.641l8.032-.969q1.453-.153 2.343-.922c.594-.52.891-1.21.891-2.078 0-1.781-.703-3.21-2.11-4.297-1.398-1.082-3.202-1.625-5.421-1.625-2.492 0-4.547.774-6.172 2.313q-2.423 2.315-2.75 5.39L125.13 33.1q.406-4.294 3.031-7.656 2.637-3.373 7.172-5.281 4.546-1.906 10.469-1.907c6.101 0 10.968 1.5 14.593 4.5s5.438 7.102 5.438 12.297V51.1q0 3 2.11 3c1.187 0 2.265-.617 3.234-1.86l2.922 6.563q-1.864 1.863-4.829 2.828-2.953.985-5.796.985-3.722-.002-6.407-2.032-2.672-2.027-3.078-4.859l-.156-1.469h-.078q-2.032 3.738-5.922 6.047-3.892 2.312-9.172 2.313m4.703-8.516q4.389 0 7.219-2.719 2.843-2.718 2.844-6.937v-1.688l-7.953.89q-5.192.564-7.22 2.11-2.015 1.535-2.015 3.563 0 2.11 2.016 3.453 2.027 1.33 5.11 1.328m31.141 7.296V1.24h12.39v60.156Zm0 0"/></g><g fill="#604605" clip-path="url(#b)" transform="translate(66 74)"><path d="M28.971 106.58q-.002 1.218-.812 1.265-.797.048-1.86-.609a8 8 0 0 1-1.859-1.61q-.797-.955-.797-1.765c.125-8.586 1.41-16.93 3.86-25.047a90.6 90.6 0 0 1 10.625-22.953q.404-.81 1.36-.5.95.3 1.905 1.203.967.908 1.422 2.016.452 1.096-.062 1.906A87.8 87.8 0 0 0 32.69 82.533a88.6 88.6 0 0 0-3.719 24.047m50.125-64.922q3.422 3.423 3.672 7 .247 3.581-1.468 7.11-1.704 3.517-4.516 6.577-2.813 3.065-5.531 5.391-8.766 7.44-19.735 11.375a16 16 0 0 1 3.016 1.813q4.123 3.11 5.234 7.89 1.108 4.78-1.406 9.313-1.816 3.121-4.734 5.64a42 42 0 0 1-6.297 4.469 84 84 0 0 1-6.578 3.484q-5.032 2.404-10.422 3.063-5.393.656-10.516-2.156-.908-.41-1.875-1.47-.954-1.047-.844-2.155.094-1.114.954-1.266c.57-.094 1.125.023 1.656.36 2.687 1.406 5.504 1.82 8.453 1.25a36 36 0 0 0 8.36-2.657 71 71 0 0 0 7.39-3.984 36 36 0 0 0 6.61-5.188q1.5-1.407 2.906-3.922 1.42-2.511 1.562-5.125.154-2.624-2.266-4.234-2.613-1.7-6.187-2-3.581-.311-6.594-.219c-.406 0-.93-.25-1.562-.75a9.6 9.6 0 0 1-1.719-1.75q-.75-1.015-.844-1.812-.094-.811.906-1.016a63 63 0 0 0 15.891-4.734 57.4 57.4 0 0 0 14-8.86q1.313-1.108 3.422-3.265a48 48 0 0 0 4.078-4.781q1.968-2.623 2.969-5.141 1.013-2.513.156-4.469-.86-1.968-4.375-2.672-4.236-.904-8.719-.343a55 55 0 0 0-8.906 1.859 195 195 0 0 0-8.25 2.61 127 127 0 0 0-12.234 5.093 85.6 85.6 0 0 0-11.422 6.578 143 143 0 0 0-4.625 3.485 26.6 26.6 0 0 0-4.485 4.421q-1.955 2.472-2.265 5.282-.096 1.22-.953 1.328-.861.094-1.922-.563a7.2 7.2 0 0 1-1.813-1.61q-.75-.966-.64-1.874.497-4.123 3.156-7.438 2.67-3.326 6.297-5.89a146 146 0 0 1 6.844-4.578 104 104 0 0 1 14.343-7.188q7.499-3.075 15.25-4.89c2.82-.739 5.844-1.329 9.063-1.766s6.367-.383 9.453.156q4.64.797 8.062 4.219M89.67 81.72q.498.816.345 1.672-.142.846-1.25.953a2.7 2.7 0 0 1-1.516-.453 6.1 6.1 0 0 1-1.312-1.156q-1.002 0-2.72 1.203-1.703 1.206-2.312 1.61a18.4 18.4 0 0 0-2.11 1.765q-1 .957-2.015 1.953-4.33 4.64-6.843 10.063-.61 1.313-2.016.703-1.406-.597-2.453-2-1.06-1.407-.656-2.422 1.611-4.53 3.375-8.906a232 232 0 0 0 3.359-8.906q.403-1.014 1.516-.75 1.107.251 2.203 1.25 1.106 1 1.515 2.109 3.422-2.608 6.89-2.86 3.481-.246 6 4.172m24.867.704q.903-.797 2.062-.344 1.153.455 1.657 1.515.497 1.049-.407 1.844a143 143 0 0 1-4.984 3.985 116 116 0 0 1-5.187 3.765q-2.205 1.423-4.625 2.922-2.407 1.514-4.938 2.125-2.003.293-3.766-.61a7.6 7.6 0 0 1-2.875-2.577 6.43 6.43 0 0 1-1.109-3.657q-.093-3.327 1.828-6.89a293 293 0 0 1 3.516-6.407q.608-.902 1.61-.703.996.207 2 1.016 1.012.798 1.515 1.812.515 1.001.11 1.704a65 65 0 0 0-2.423 4.484 60 60 0 0 0-2.015 4.578q-.189.597-.5 1.313 2.11-.311 5.531-1.922a75 75 0 0 0 7-3.766c2.383-1.445 4.383-2.844 6-4.187m-9.063-10.47q-.61 1.22-2.078.61-1.454-.609-2.562-1.969c-.73-.906-.93-1.726-.594-2.468a124 124 0 0 0 1.297-2.657l.406-.859q.609-.903 1.61-.75 1.013.143 1.968.953a6.3 6.3 0 0 1 1.5 1.813q.561 1.003.157 1.812s-.102.219-.297.656q-.3.645-1.407 2.86m0 0"/><path d="M149.766 81.111q1.09-.498 2.156.469 1.06.953 1.36 2.265c.195.868-.137 1.5-1 1.907a84 84 0 0 0-11.782 6.39 75 75 0 0 0-10.468 8.203 383 383 0 0 1-15.61 37.954q-.59 1.294-1.75.796-1.154-.503-2.156-1.656-1.014-1.159-1.219-1.765c-1.406-3.688-1.805-7.415-1.203-11.172q.907-5.643 3.672-10.922c1.844-3.524 3.867-6.727 6.078-9.61A80 80 0 0 1 125 96.017a228 228 0 0 0 2.219-6.343 75 75 0 0 0-7.156 5.484q-3.421 2.964-7.75 4.687-.996.389-2.11-.359a5.9 5.9 0 0 1-1.812-1.969q-.701-1.207-.5-2.203 1.001-4.53 3.422-8.812c1.605-2.852 3.652-5.22 6.14-7.094 2.07-1.54 4.282-2.125 6.625-1.75q3.529.55 5.657 3.656.386-.093.703-.203.996-.294 2.156.406a5.9 5.9 0 0 1 1.906 1.86q.762 1.159.469 2.265-.316.706-.562 1.516a30 30 0 0 0-.454 1.61q4.325-2.421 8.157-4.173a890 890 0 0 1 7.656-3.484m-32.219 7.86a124 124 0 0 1 4.078-3.329A29 29 0 0 1 126 82.83q-.205 0-.5-.094-.298 0-.61.047a4 4 0 0 0-.593.14 4.8 4.8 0 0 0-1.562.72q-.75.501-1.36 1a25 25 0 0 0-1.906 1.921 49 49 0 0 0-1.719 2c-.062.074-.117.14-.156.203a.5.5 0 0 0-.047.203m-2.922 33.515q.514-1.206 1.063-2.422.546-1.206 1.062-2.406a37 37 0 0 0-2.125 4.828m0 0"/><path d="M197.07 81.83q.996-.514 2 .203 1.012.704 1.312 1.812.312 1.095-1 1.797a391 391 0 0 0-9.266 5.547q-4.722 2.907-9.75 4.625c-1.887.602-3.734.485-5.547-.36-1.812-.831-2.82-2.359-3.015-4.577q-.095-1.5.296-3.063.403-1.56.907-2.969.404-1.013.812-2.015.405-.996.703-2.016-12.28 6.846-21.75 17.313-.504.608-1.453.25-.955-.345-1.453-.75c-2.219-1.68-3.328-3.57-3.328-5.688q0-3.17 1.203-6.797a272 272 0 0 1 6.844-17.11 211 211 0 0 1 8.406-16.765 242 242 0 0 1 9.719-15.953q.498-.794 1.5-.5 1.013.3 1.922 1.203a6.2 6.2 0 0 1 1.359 2.016q.45 1.113-.047 1.922a219 219 0 0 0-15.61 27.469q-3.315 7.048-6.234 14.406-1.204 3.11-2.421 6.531a92 92 0 0 1 7.953-6.531 101 101 0 0 1 8.562-5.64c1.469-.876 2.89-1.477 4.266-1.813q2.076-.499 4.187 1.406 1.7 1.61 1.953 3.672a11.4 11.4 0 0 1-.25 4.172 16 16 0 0 1-.953 3.328 40 40 0 0 0-1.156 3.219q4.828-1.5 9.906-3.657 5.092-2.168 9.422-4.687m0 0"/><path d="M247.604 56.252q.903.503 1.86 1.562.95 1.066.859 2.172-.113 1.096-.922 1.25c-.531.105-1.102-.008-1.703-.344a27.7 27.7 0 0 0-8.25-2.718 99 99 0 0 0-8.657-1.016q-8.565-.5-17.218-.406h-.297a287 287 0 0 0-8.11 19.843 148 148 0 0 0-5.843 20.422c-1.438 6.914-2.086 13.961-1.953 21.14q0 1.203-.797 1.298-.81.107-1.86-.547a7.3 7.3 0 0 1-1.86-1.61c-.538-.636-.812-1.257-.812-1.859q-.31-15.3 3.922-29.89a235 235 0 0 1 10.266-28.485 215 215 0 0 0-28.688 3.516q-.902.204-1.953-.5a7.2 7.2 0 0 1-1.812-1.703q-.764-1.014-.86-1.922-.105-.904.797-1.11a253 253 0 0 1 17.422-2.609 192 192 0 0 1 17.61-1.219q1.606-3.515 3.218-6.984a233 233 0 0 1 3.328-6.89q.405-.903 1.407-.75.997.142 2 .952 1.012.798 1.562 1.813.562 1.001.156 1.797-1.206 2.519-2.359 4.984a246 246 0 0 1-2.36 4.89c3.551 0 7.188.071 10.907.204q5.59.188 10.969 1.25 5.39 1.066 10.03 3.469m0 0"/></g></svg>